solid table
   facet normal -1.000000e+00 -1.776357e-16 -0.000000e+00
      outer loop
         vertex 8.881784e-16 0.000000e+00 5.000000e-03
         vertex 0.000000e+00 5.000000e+00 5.000000e-03
         vertex 8.881784e-16 0.000000e+00 0.000000e+00
      endloop
   endfacet
   facet normal -1.000000e+00 -1.776357e-16 0.000000e+00
      outer loop
         vertex 8.881784e-16 0.000000e+00 0.000000e+00
         vertex 0.000000e+00 5.000000e+00 5.000000e-03
         vertex 0.000000e+00 5.000000e+00 0.000000e+00
      endloop
   endfacet
   facet normal -0.000000e+00 -1.000000e+00 -0.000000e+00
      outer loop
         vertex 5.000000e+00 0.000000e+00 5.000000e-03
         vertex 8.881784e-16 0.000000e+00 5.000000e-03
         vertex 5.000000e+00 0.000000e+00 0.000000e+00
      endloop
   endfacet
   facet normal 0.000000e+00 -1.000000e+00 0.000000e+00
      outer loop
         vertex 5.000000e+00 0.000000e+00 0.000000e+00
         vertex 8.881784e-16 0.000000e+00 5.000000e-03
         vertex 8.881784e-16 0.000000e+00 0.000000e+00
      endloop
   endfacet
   facet normal 1.000000e+00 0.000000e+00 0.000000e+00
      outer loop
         vertex 5.000000e+00 5.000000e+00 5.000000e-03
         vertex 5.000000e+00 0.000000e+00 5.000000e-03
         vertex 5.000000e+00 5.000000e+00 0.000000e+00
      endloop
   endfacet
   facet normal 1.000000e+00 0.000000e+00 0.000000e+00
      outer loop
         vertex 5.000000e+00 5.000000e+00 0.000000e+00
         vertex 5.000000e+00 0.000000e+00 5.000000e-03
         vertex 5.000000e+00 0.000000e+00 0.000000e+00
      endloop
   endfacet
   facet normal -0.000000e+00 1.000000e+00 0.000000e+00
      outer loop
         vertex 0.000000e+00 5.000000e+00 5.000000e-03
         vertex 5.000000e+00 5.000000e+00 5.000000e-03
         vertex 0.000000e+00 5.000000e+00 0.000000e+00
      endloop
   endfacet
   facet normal 0.000000e+00 1.000000e+00 0.000000e+00
      outer loop
         vertex 0.000000e+00 5.000000e+00 0.000000e+00
         vertex 5.000000e+00 5.000000e+00 5.000000e-03
         vertex 5.000000e+00 5.000000e+00 0.000000e+00
      endloop
   endfacet
   facet normal 0.000000e+00 -0.000000e+00 1.000000e+00
      outer loop
         vertex 5.000000e+00 0.000000e+00 5.000000e-03
         vertex 5.000000e+00 5.000000e+00 5.000000e-03
         vertex 8.881784e-16 0.000000e+00 5.000000e-03
      endloop
   endfacet
   facet normal 0.000000e+00 -0.000000e+00 1.000000e+00
      outer loop
         vertex 8.881784e-16 0.000000e+00 5.000000e-03
         vertex 5.000000e+00 5.000000e+00 5.000000e-03
         vertex 0.000000e+00 5.000000e+00 5.000000e-03
      endloop
   endfacet
   facet normal -0.000000e+00 -0.000000e+00 -1.000000e+00
      outer loop
         vertex 5.000000e+00 5.000000e+00 0.000000e+00
         vertex 5.000000e+00 0.000000e+00 0.000000e+00
         vertex 0.000000e+00 5.000000e+00 0.000000e+00
      endloop
   endfacet
   facet normal 0.000000e+00 0.000000e+00 -1.000000e+00
      outer loop
         vertex 0.000000e+00 5.000000e+00 0.000000e+00
         vertex 5.000000e+00 0.000000e+00 0.000000e+00
         vertex 8.881784e-16 0.000000e+00 0.000000e+00
      endloop
   endfacet
endsolid